var piratesMID = {
    "header": {
      "PPQ": 96,
      "bpm": 120,
      "name": ""
    },
    "startTime": 0,
    "duration": 82.83333333333331,
    "tracks": [
      {
        "startTime": 0,
        "duration": 82.83333333333331,
        "length": 261,
        "notes": [
          {
            "name": "D4",
            "midi": 62,
            "time": 0,
            "velocity": 0.5039370078740157,
            "duration": 0.16666666666666666
          },
          {
            "name": "D4",
            "midi": 62,
            "time": 0.3333333333333333,
            "velocity": 0.5039370078740157,
            "duration": 0.08333333333333331
          },
          {
            "name": "D4",
            "midi": 62,
            "time": 0.3333333333333333,
            "velocity": 0.5039370078740157,
            "duration": 0.08333333333333331
          },
          {
            "name": "D4",
            "midi": 62,
            "time": 0.49999999999999994,
            "velocity": 0.5039370078740157,
            "duration": 0.08333333333333331
          },
          {
            "name": "D4",
            "midi": 62,
            "time": 0.49999999999999994,
            "velocity": 0.5039370078740157,
            "duration": 0.08333333333333331
          },
          {
            "name": "D4",
            "midi": 62,
            "time": 0.8333333333333333,
            "velocity": 0.5039370078740157,
            "duration": 0.08333333333333337
          },
          {
            "name": "D4",
            "midi": 62,
            "time": 1,
            "velocity": 0.5039370078740157,
            "duration": 0.08333333333333326
          },
          {
            "name": "D4",
            "midi": 62,
            "time": 1.3333333333333333,
            "velocity": 0.5039370078740157,
            "duration": 0.08333333333333326
          },
          {
            "name": "D4",
            "midi": 62,
            "time": 1.4999999999999998,
            "velocity": 0.5039370078740157,
            "duration": 0.08333333333333326
          },
          {
            "name": "D4",
            "midi": 62,
            "time": 1.833333333333333,
            "velocity": 0.5039370078740157,
            "duration": 0.08333333333333326
          },
          {
            "name": "D4",
            "midi": 62,
            "time": 1.9999999999999996,
            "velocity": 0.5039370078740157,
            "duration": 0.08333333333333348
          },
          {
            "name": "D4",
            "midi": 62,
            "time": 2.333333333333333,
            "velocity": 0.5039370078740157,
            "duration": 0.08333333333333348
          },
          {
            "name": "D4",
            "midi": 62,
            "time": 2.5,
            "velocity": 0.5039370078740157,
            "duration": 0.08333333333333348
          },
          {
            "name": "D4",
            "midi": 62,
            "time": 2.8333333333333335,
            "velocity": 0.5039370078740157,
            "duration": 0.08333333333333348
          },
          {
            "name": "D4",
            "midi": 62,
            "time": 3.0000000000000004,
            "velocity": 0.5039370078740157,
            "duration": 0.08333333333333348
          },
          {
            "name": "D4",
            "midi": 62,
            "time": 3.333333333333334,
            "velocity": 0.5039370078740157,
            "duration": 0.08333333333333348
          },
          {
            "name": "D4",
            "midi": 62,
            "time": 3.500000000000001,
            "velocity": 0.5039370078740157,
            "duration": 0.16666666666666652
          },
          {
            "name": "A3",
            "midi": 57,
            "time": 3.833333333333334,
            "velocity": 0.5039370078740157,
            "duration": 0.08333333333333348
          },
          {
            "name": "C4",
            "midi": 60,
            "time": 4.000000000000001,
            "velocity": 0.5039370078740157,
            "duration": 0.08333333333333304
          },
          {
            "name": "D4",
            "midi": 62,
            "time": 4.166666666666667,
            "velocity": 0.5039370078740157,
            "duration": 0.16666666666666696
          },
          {
            "name": "D4",
            "midi": 62,
            "time": 4.500000000000001,
            "velocity": 0.5039370078740157,
            "duration": 0.16666666666666696
          },
          {
            "name": "D4",
            "midi": 62,
            "time": 4.833333333333334,
            "velocity": 0.5039370078740157,
            "duration": 0.08333333333333304
          },
          {
            "name": "E4",
            "midi": 64,
            "time": 5,
            "velocity": 0.5039370078740157,
            "duration": 0.08333333333333304
          },
          {
            "name": "F4",
            "midi": 65,
            "time": 5.166666666666666,
            "velocity": 0.5039370078740157,
            "duration": 0.16666666666666696
          },
          {
            "name": "F4",
            "midi": 65,
            "time": 5.5,
            "velocity": 0.5039370078740157,
            "duration": 0.16666666666666696
          },
          {
            "name": "F4",
            "midi": 65,
            "time": 5.833333333333334,
            "velocity": 0.5039370078740157,
            "duration": 0.08333333333333304
          },
          {
            "name": "G4",
            "midi": 67,
            "time": 6,
            "velocity": 0.5039370078740157,
            "duration": 0.08333333333333304
          },
          {
            "name": "E4",
            "midi": 64,
            "time": 6.166666666666666,
            "velocity": 0.5039370078740157,
            "duration": 0.16666666666666696
          },
          {
            "name": "D4",
            "midi": 62,
            "time": 6.5,
            "velocity": 0.5039370078740157,
            "duration": 0.16666666666666696
          },
          {
            "name": "C4",
            "midi": 60,
            "time": 6.833333333333334,
            "velocity": 0.5039370078740157,
            "duration": 0.16666666666666696
          },
          {
            "name": "C4",
            "midi": 60,
            "time": 7.166666666666668,
            "velocity": 0.5039370078740157,
            "duration": 0.08333333333333304
          },
          {
            "name": "D4",
            "midi": 62,
            "time": 7.333333333333334,
            "velocity": 0.5039370078740157,
            "duration": 0.16666666666666696
          },
          {
            "name": "A3",
            "midi": 57,
            "time": 7.833333333333334,
            "velocity": 0.5039370078740157,
            "duration": 0.08333333333333304
          },
          {
            "name": "C4",
            "midi": 60,
            "time": 8,
            "velocity": 0.5039370078740157,
            "duration": 0.08333333333333393
          },
          {
            "name": "D4",
            "midi": 62,
            "time": 8.166666666666668,
            "velocity": 0.5039370078740157,
            "duration": 0.16666666666666607
          },
          {
            "name": "D4",
            "midi": 62,
            "time": 8.5,
            "velocity": 0.5039370078740157,
            "duration": 0.16666666666666607
          },
          {
            "name": "D4",
            "midi": 62,
            "time": 8.833333333333332,
            "velocity": 0.5039370078740157,
            "duration": 0.08333333333333393
          },
          {
            "name": "E4",
            "midi": 64,
            "time": 9,
            "velocity": 0.5039370078740157,
            "duration": 0.08333333333333393
          },
          {
            "name": "F4",
            "midi": 65,
            "time": 9.166666666666668,
            "velocity": 0.5039370078740157,
            "duration": 0.16666666666666607
          },
          {
            "name": "F4",
            "midi": 65,
            "time": 9.5,
            "velocity": 0.5039370078740157,
            "duration": 0.16666666666666607
          },
          {
            "name": "F4",
            "midi": 65,
            "time": 9.833333333333332,
            "velocity": 0.5039370078740157,
            "duration": 0.08333333333333393
          },
          {
            "name": "G4",
            "midi": 67,
            "time": 10,
            "velocity": 0.5039370078740157,
            "duration": 0.08333333333333393
          },
          {
            "name": "E4",
            "midi": 64,
            "time": 10.166666666666668,
            "velocity": 0.5039370078740157,
            "duration": 0.16666666666666607
          },
          {
            "name": "D4",
            "midi": 62,
            "time": 10.5,
            "velocity": 0.5039370078740157,
            "duration": 0.16666666666666607
          },
          {
            "name": "C4",
            "midi": 60,
            "time": 10.833333333333332,
            "velocity": 0.5039370078740157,
            "duration": 0.16666666666666607
          },
          {
            "name": "C4",
            "midi": 60,
            "time": 11.166666666666664,
            "velocity": 0.5039370078740157,
            "duration": 0.08333333333333393
          },
          {
            "name": "D4",
            "midi": 62,
            "time": 11.333333333333332,
            "velocity": 0.5039370078740157,
            "duration": 0.16666666666666607
          },
          {
            "name": "A3",
            "midi": 57,
            "time": 11.833333333333332,
            "velocity": 0.5039370078740157,
            "duration": 0.08333333333333393
          },
          {
            "name": "C4",
            "midi": 60,
            "time": 12,
            "velocity": 0.5039370078740157,
            "duration": 0.08333333333333393
          },
          {
            "name": "D4",
            "midi": 62,
            "time": 12.166666666666668,
            "velocity": 0.5039370078740157,
            "duration": 0.16666666666666607
          },
          {
            "name": "D4",
            "midi": 62,
            "time": 12.5,
            "velocity": 0.5039370078740157,
            "duration": 0.16666666666666607
          },
          {
            "name": "D4",
            "midi": 62,
            "time": 12.833333333333332,
            "velocity": 0.5039370078740157,
            "duration": 0.08333333333333393
          },
          {
            "name": "F4",
            "midi": 65,
            "time": 13,
            "velocity": 0.5039370078740157,
            "duration": 0.08333333333333393
          },
          {
            "name": "G4",
            "midi": 67,
            "time": 13.166666666666668,
            "velocity": 0.5039370078740157,
            "duration": 0.16666666666666607
          },
          {
            "name": "G4",
            "midi": 67,
            "time": 13.5,
            "velocity": 0.5039370078740157,
            "duration": 0.16666666666666607
          },
          {
            "name": "G4",
            "midi": 67,
            "time": 13.833333333333332,
            "velocity": 0.5039370078740157,
            "duration": 0.08333333333333393
          },
          {
            "name": "A4",
            "midi": 69,
            "time": 14,
            "velocity": 0.5039370078740157,
            "duration": 0.08333333333333393
          },
          {
            "name": "A#4",
            "midi": 70,
            "time": 14.166666666666668,
            "velocity": 0.5039370078740157,
            "duration": 0.16666666666666607
          },
          {
            "name": "A#4",
            "midi": 70,
            "time": 14.5,
            "velocity": 0.5039370078740157,
            "duration": 0.16666666666666607
          },
          {
            "name": "A4",
            "midi": 69,
            "time": 14.833333333333332,
            "velocity": 0.5039370078740157,
            "duration": 0.08333333333333393
          },
          {
            "name": "G#4",
            "midi": 68,
            "time": 15,
            "velocity": 0.5039370078740157,
            "duration": 0.08333333333333393
          },
          {
            "name": "A4",
            "midi": 69,
            "time": 15.166666666666668,
            "velocity": 0.5039370078740157,
            "duration": 0.08333333333333393
          },
          {
            "name": "D4",
            "midi": 62,
            "time": 15.333333333333336,
            "velocity": 0.5039370078740157,
            "duration": 0.16666666666666607
          },
          {
            "name": "D4",
            "midi": 62,
            "time": 15.66666666666667,
            "velocity": 0.5039370078740157,
            "duration": 0.08333333333333393
          },
          {
            "name": "E4",
            "midi": 64,
            "time": 15.833333333333336,
            "velocity": 0.5039370078740157,
            "duration": 0.08333333333333393
          },
          {
            "name": "F4",
            "midi": 65,
            "time": 16.000000000000004,
            "velocity": 0.5039370078740157,
            "duration": 0.16666666666666785
          },
          {
            "name": "F4",
            "midi": 65,
            "time": 16.33333333333334,
            "velocity": 0.5039370078740157,
            "duration": 0.16666666666666785
          },
          {
            "name": "G4",
            "midi": 67,
            "time": 16.666666666666675,
            "velocity": 0.5039370078740157,
            "duration": 0.16666666666666785
          },
          {
            "name": "A4",
            "midi": 69,
            "time": 17.00000000000001,
            "velocity": 0.5039370078740157,
            "duration": 0.08333333333333215
          },
          {
            "name": "D4",
            "midi": 62,
            "time": 17.166666666666675,
            "velocity": 0.5039370078740157,
            "duration": 0.16666666666666785
          },
          {
            "name": "D4",
            "midi": 62,
            "time": 17.50000000000001,
            "velocity": 0.5039370078740157,
            "duration": 0.08333333333333215
          },
          {
            "name": "E4",
            "midi": 64,
            "time": 17.666666666666675,
            "velocity": 0.5039370078740157,
            "duration": 0.16666666666666785
          },
          {
            "name": "E4",
            "midi": 64,
            "time": 18.00000000000001,
            "velocity": 0.5039370078740157,
            "duration": 0.16666666666666785
          },
          {
            "name": "F4",
            "midi": 65,
            "time": 18.333333333333346,
            "velocity": 0.5039370078740157,
            "duration": 0.08333333333333215
          },
          {
            "name": "D4",
            "midi": 62,
            "time": 18.50000000000001,
            "velocity": 0.5039370078740157,
            "duration": 0.08333333333333215
          },
          {
            "name": "E4",
            "midi": 64,
            "time": 18.666666666666675,
            "velocity": 0.5039370078740157,
            "duration": 0.08333333333333215
          },
          {
            "name": "A4",
            "midi": 69,
            "time": 19.166666666666675,
            "velocity": 0.5039370078740157,
            "duration": 0.08333333333333215
          },
          {
            "name": "C5",
            "midi": 72,
            "time": 19.33333333333334,
            "velocity": 0.5039370078740157,
            "duration": 0.08333333333333215
          },
          {
            "name": "D5",
            "midi": 74,
            "time": 19.500000000000004,
            "velocity": 0.5039370078740157,
            "duration": 0.16666666666666785
          },
          {
            "name": "D5",
            "midi": 74,
            "time": 19.83333333333334,
            "velocity": 0.5039370078740157,
            "duration": 0.16666666666666785
          },
          {
            "name": "D5",
            "midi": 74,
            "time": 20.166666666666675,
            "velocity": 0.5039370078740157,
            "duration": 0.08333333333333215
          },
          {
            "name": "E5",
            "midi": 76,
            "time": 20.33333333333334,
            "velocity": 0.5039370078740157,
            "duration": 0.08333333333333215
          },
          {
            "name": "F5",
            "midi": 77,
            "time": 20.500000000000004,
            "velocity": 0.5039370078740157,
            "duration": 0.16666666666666785
          },
          {
            "name": "F5",
            "midi": 77,
            "time": 20.83333333333334,
            "velocity": 0.5039370078740157,
            "duration": 0.16666666666666785
          },
          {
            "name": "F5",
            "midi": 77,
            "time": 21.166666666666675,
            "velocity": 0.5039370078740157,
            "duration": 0.08333333333333215
          },
          {
            "name": "G5",
            "midi": 79,
            "time": 21.33333333333334,
            "velocity": 0.5039370078740157,
            "duration": 0.08333333333333215
          },
          {
            "name": "E5",
            "midi": 76,
            "time": 21.500000000000004,
            "velocity": 0.5039370078740157,
            "duration": 0.16666666666666785
          },
          {
            "name": "D5",
            "midi": 74,
            "time": 21.83333333333334,
            "velocity": 0.5039370078740157,
            "duration": 0.16666666666666785
          },
          {
            "name": "C5",
            "midi": 72,
            "time": 22.166666666666675,
            "velocity": 0.5039370078740157,
            "duration": 0.16666666666666785
          },
          {
            "name": "C5",
            "midi": 72,
            "time": 22.50000000000001,
            "velocity": 0.5039370078740157,
            "duration": 0.08333333333333215
          },
          {
            "name": "D5",
            "midi": 74,
            "time": 22.666666666666675,
            "velocity": 0.5039370078740157,
            "duration": 0.16666666666666785
          },
          {
            "name": "A4",
            "midi": 69,
            "time": 23.166666666666675,
            "velocity": 0.5039370078740157,
            "duration": 0.08333333333333215
          },
          {
            "name": "C5",
            "midi": 72,
            "time": 23.33333333333334,
            "velocity": 0.5039370078740157,
            "duration": 0.08333333333333215
          },
          {
            "name": "D5",
            "midi": 74,
            "time": 23.500000000000004,
            "velocity": 0.5039370078740157,
            "duration": 0.16666666666666785
          },
          {
            "name": "D5",
            "midi": 74,
            "time": 23.83333333333334,
            "velocity": 0.5039370078740157,
            "duration": 0.16666666666666785
          },
          {
            "name": "D5",
            "midi": 74,
            "time": 24.166666666666675,
            "velocity": 0.5039370078740157,
            "duration": 0.08333333333333215
          },
          {
            "name": "E5",
            "midi": 76,
            "time": 24.33333333333334,
            "velocity": 0.5039370078740157,
            "duration": 0.08333333333333215
          },
          {
            "name": "F5",
            "midi": 77,
            "time": 24.500000000000004,
            "velocity": 0.5039370078740157,
            "duration": 0.16666666666666785
          },
          {
            "name": "F5",
            "midi": 77,
            "time": 24.83333333333334,
            "velocity": 0.5039370078740157,
            "duration": 0.16666666666666785
          },
          {
            "name": "F5",
            "midi": 77,
            "time": 25.166666666666675,
            "velocity": 0.5039370078740157,
            "duration": 0.08333333333333215
          },
          {
            "name": "G5",
            "midi": 79,
            "time": 25.33333333333334,
            "velocity": 0.5039370078740157,
            "duration": 0.08333333333333215
          },
          {
            "name": "E5",
            "midi": 76,
            "time": 25.500000000000004,
            "velocity": 0.5039370078740157,
            "duration": 0.16666666666666785
          },
          {
            "name": "D5",
            "midi": 74,
            "time": 25.83333333333334,
            "velocity": 0.5039370078740157,
            "duration": 0.16666666666666785
          },
          {
            "name": "C5",
            "midi": 72,
            "time": 26.166666666666675,
            "velocity": 0.5039370078740157,
            "duration": 0.16666666666666785
          },
          {
            "name": "C5",
            "midi": 72,
            "time": 26.50000000000001,
            "velocity": 0.5039370078740157,
            "duration": 0.08333333333333215
          },
          {
            "name": "D5",
            "midi": 74,
            "time": 26.666666666666675,
            "velocity": 0.5039370078740157,
            "duration": 0.16666666666666785
          },
          {
            "name": "A4",
            "midi": 69,
            "time": 27.166666666666675,
            "velocity": 0.5039370078740157,
            "duration": 0.08333333333333215
          },
          {
            "name": "C5",
            "midi": 72,
            "time": 27.33333333333334,
            "velocity": 0.5039370078740157,
            "duration": 0.08333333333333215
          },
          {
            "name": "D5",
            "midi": 74,
            "time": 27.500000000000004,
            "velocity": 0.5039370078740157,
            "duration": 0.16666666666666785
          },
          {
            "name": "D5",
            "midi": 74,
            "time": 27.83333333333334,
            "velocity": 0.5039370078740157,
            "duration": 0.16666666666666785
          },
          {
            "name": "D5",
            "midi": 74,
            "time": 28.166666666666675,
            "velocity": 0.5039370078740157,
            "duration": 0.08333333333333215
          },
          {
            "name": "F5",
            "midi": 77,
            "time": 28.33333333333334,
            "velocity": 0.5039370078740157,
            "duration": 0.08333333333333215
          },
          {
            "name": "G5",
            "midi": 79,
            "time": 28.500000000000004,
            "velocity": 0.5039370078740157,
            "duration": 0.16666666666666785
          },
          {
            "name": "G5",
            "midi": 79,
            "time": 28.83333333333334,
            "velocity": 0.5039370078740157,
            "duration": 0.16666666666666785
          },
          {
            "name": "G5",
            "midi": 79,
            "time": 29.166666666666675,
            "velocity": 0.5039370078740157,
            "duration": 0.08333333333333215
          },
          {
            "name": "A5",
            "midi": 81,
            "time": 29.33333333333334,
            "velocity": 0.5039370078740157,
            "duration": 0.08333333333333215
          },
          {
            "name": "A#5",
            "midi": 82,
            "time": 29.500000000000004,
            "velocity": 0.5039370078740157,
            "duration": 0.16666666666666785
          },
          {
            "name": "A#5",
            "midi": 82,
            "time": 29.83333333333334,
            "velocity": 0.5039370078740157,
            "duration": 0.16666666666666785
          },
          {
            "name": "A5",
            "midi": 81,
            "time": 30.166666666666675,
            "velocity": 0.5039370078740157,
            "duration": 0.08333333333333215
          },
          {
            "name": "G#5",
            "midi": 80,
            "time": 30.33333333333334,
            "velocity": 0.5039370078740157,
            "duration": 0.08333333333333215
          },
          {
            "name": "A5",
            "midi": 81,
            "time": 30.500000000000004,
            "velocity": 0.5039370078740157,
            "duration": 0.08333333333333215
          },
          {
            "name": "D5",
            "midi": 74,
            "time": 30.666666666666668,
            "velocity": 0.5039370078740157,
            "duration": 0.16666666666666785
          },
          {
            "name": "D5",
            "midi": 74,
            "time": 31.000000000000004,
            "velocity": 0.5039370078740157,
            "duration": 0.08333333333333215
          },
          {
            "name": "E5",
            "midi": 76,
            "time": 31.166666666666668,
            "velocity": 0.5039370078740157,
            "duration": 0.08333333333333215
          },
          {
            "name": "F5",
            "midi": 77,
            "time": 31.333333333333332,
            "velocity": 0.5039370078740157,
            "duration": 0.16666666666666785
          },
          {
            "name": "F5",
            "midi": 77,
            "time": 31.666666666666668,
            "velocity": 0.5039370078740157,
            "duration": 0.16666666666666785
          },
          {
            "name": "G5",
            "midi": 79,
            "time": 32,
            "velocity": 0.5039370078740157,
            "duration": 0.1666666666666643
          },
          {
            "name": "A5",
            "midi": 81,
            "time": 32.33333333333333,
            "velocity": 0.5039370078740157,
            "duration": 0.0833333333333357
          },
          {
            "name": "D5",
            "midi": 74,
            "time": 32.5,
            "velocity": 0.5039370078740157,
            "duration": 0.1666666666666643
          },
          {
            "name": "D5",
            "midi": 74,
            "time": 32.83333333333333,
            "velocity": 0.5039370078740157,
            "duration": 0.0833333333333357
          },
          {
            "name": "F5",
            "midi": 77,
            "time": 33,
            "velocity": 0.5039370078740157,
            "duration": 0.0833333333333357
          },
          {
            "name": "E5",
            "midi": 76,
            "time": 33.16666666666667,
            "velocity": 0.5039370078740157,
            "duration": 0.1666666666666643
          },
          {
            "name": "E5",
            "midi": 76,
            "time": 33.5,
            "velocity": 0.5039370078740157,
            "duration": 0.1666666666666643
          },
          {
            "name": "D5",
            "midi": 74,
            "time": 33.83333333333333,
            "velocity": 0.5039370078740157,
            "duration": 0.0833333333333357
          },
          {
            "name": "C#5",
            "midi": 73,
            "time": 34,
            "velocity": 0.5039370078740157,
            "duration": 0.0833333333333357
          },
          {
            "name": "D5",
            "midi": 74,
            "time": 34.16666666666667,
            "velocity": 0.5039370078740157,
            "duration": 0.1666666666666643
          },
          {
            "name": "D5",
            "midi": 74,
            "time": 34.5,
            "velocity": 0.5039370078740157,
            "duration": 0.1666666666666643
          },
          {
            "name": "E5",
            "midi": 76,
            "time": 34.83333333333333,
            "velocity": 0.5039370078740157,
            "duration": 0.1666666666666643
          },
          {
            "name": "F5",
            "midi": 77,
            "time": 35.16666666666666,
            "velocity": 0.5039370078740157,
            "duration": 0.1666666666666643
          },
          {
            "name": "F5",
            "midi": 77,
            "time": 35.499999999999986,
            "velocity": 0.5039370078740157,
            "duration": 0.0833333333333357
          },
          {
            "name": "F5",
            "midi": 77,
            "time": 35.66666666666666,
            "velocity": 0.5039370078740157,
            "duration": 0.0833333333333357
          },
          {
            "name": "G5",
            "midi": 79,
            "time": 35.83333333333333,
            "velocity": 0.5039370078740157,
            "duration": 0.1666666666666643
          },
          {
            "name": "A5",
            "midi": 81,
            "time": 36.16666666666666,
            "velocity": 0.5039370078740157,
            "duration": 0.5833333333333357
          },
          {
            "name": "F5",
            "midi": 77,
            "time": 36.99999999999999,
            "velocity": 0.5039370078740157,
            "duration": 0.0833333333333357
          },
          {
            "name": "D5",
            "midi": 74,
            "time": 37.166666666666664,
            "velocity": 0.5039370078740157,
            "duration": 0.0833333333333357
          },
          {
            "name": "A4",
            "midi": 69,
            "time": 37.333333333333336,
            "velocity": 0.5039370078740157,
            "duration": 0.1666666666666643
          },
          {
            "name": "A#5",
            "midi": 82,
            "time": 38.333333333333336,
            "velocity": 0.5039370078740157,
            "duration": 0.6666666666666643
          },
          {
            "name": "G5",
            "midi": 79,
            "time": 39.166666666666664,
            "velocity": 0.5039370078740157,
            "duration": 0.0833333333333357
          },
          {
            "name": "D5",
            "midi": 74,
            "time": 39.333333333333336,
            "velocity": 0.5039370078740157,
            "duration": 0.0833333333333357
          },
          {
            "name": "A#4",
            "midi": 70,
            "time": 39.50000000000001,
            "velocity": 0.5039370078740157,
            "duration": 0.3333333333333357
          },
          {
            "name": "E4",
            "midi": 64,
            "time": 40.33333333333334,
            "velocity": 0.5039370078740157,
            "duration": 0.0833333333333357
          },
          {
            "name": "E4",
            "midi": 64,
            "time": 40.500000000000014,
            "velocity": 0.5039370078740157,
            "duration": 0.1666666666666643
          },
          {
            "name": "D4",
            "midi": 62,
            "time": 40.83333333333334,
            "velocity": 0.5039370078740157,
            "duration": 0.3333333333333357
          },
          {
            "name": "F4",
            "midi": 65,
            "time": 41.33333333333334,
            "velocity": 0.5039370078740157,
            "duration": 0.3333333333333357
          },
          {
            "name": "F4",
            "midi": 65,
            "time": 41.83333333333334,
            "velocity": 0.5039370078740157,
            "duration": 0.0833333333333357
          },
          {
            "name": "G4",
            "midi": 67,
            "time": 42.000000000000014,
            "velocity": 0.5039370078740157,
            "duration": 0.0833333333333357
          },
          {
            "name": "A4",
            "midi": 69,
            "time": 42.166666666666686,
            "velocity": 0.5039370078740157,
            "duration": 0.1666666666666643
          },
          {
            "name": "A4",
            "midi": 69,
            "time": 42.500000000000014,
            "velocity": 0.5039370078740157,
            "duration": 0.1666666666666643
          },
          {
            "name": "A4",
            "midi": 69,
            "time": 42.83333333333334,
            "velocity": 0.5039370078740157,
            "duration": 0.1666666666666643
          },
          {
            "name": "A#4",
            "midi": 70,
            "time": 43.16666666666667,
            "velocity": 0.5039370078740157,
            "duration": 0.0833333333333357
          },
          {
            "name": "A4",
            "midi": 69,
            "time": 43.33333333333334,
            "velocity": 0.5039370078740157,
            "duration": 0.0833333333333357
          },
          {
            "name": "G4",
            "midi": 67,
            "time": 44.000000000000014,
            "velocity": 0.5039370078740157,
            "duration": 0.1666666666666643
          },
          {
            "name": "G4",
            "midi": 67,
            "time": 44.33333333333334,
            "velocity": 0.5039370078740157,
            "duration": 0.1666666666666643
          },
          {
            "name": "G4",
            "midi": 67,
            "time": 44.66666666666667,
            "velocity": 0.5039370078740157,
            "duration": 0.1666666666666643
          },
          {
            "name": "G4",
            "midi": 67,
            "time": 45,
            "velocity": 0.5039370078740157,
            "duration": 0.0833333333333357
          },
          {
            "name": "A4",
            "midi": 69,
            "time": 45.16666666666667,
            "velocity": 0.5039370078740157,
            "duration": 0.1666666666666643
          },
          {
            "name": "A4",
            "midi": 69,
            "time": 45.833333333333336,
            "velocity": 0.5039370078740157,
            "duration": 0.1666666666666643
          },
          {
            "name": "A4",
            "midi": 69,
            "time": 46.166666666666664,
            "velocity": 0.5039370078740157,
            "duration": 0.1666666666666643
          },
          {
            "name": "A4",
            "midi": 69,
            "time": 46.49999999999999,
            "velocity": 0.5039370078740157,
            "duration": 0.1666666666666643
          },
          {
            "name": "A#4",
            "midi": 70,
            "time": 46.83333333333332,
            "velocity": 0.5039370078740157,
            "duration": 0.0833333333333357
          },
          {
            "name": "A4",
            "midi": 69,
            "time": 46.99999999999999,
            "velocity": 0.5039370078740157,
            "duration": 0.1666666666666643
          },
          {
            "name": "G4",
            "midi": 67,
            "time": 47.66666666666666,
            "velocity": 0.5039370078740157,
            "duration": 0.1666666666666643
          },
          {
            "name": "F4",
            "midi": 65,
            "time": 47.999999999999986,
            "velocity": 0.5039370078740157,
            "duration": 0.1666666666666643
          },
          {
            "name": "E4",
            "midi": 64,
            "time": 48.333333333333314,
            "velocity": 0.5039370078740157,
            "duration": 0.1666666666666643
          },
          {
            "name": "D4",
            "midi": 62,
            "time": 48.66666666666664,
            "velocity": 0.5039370078740157,
            "duration": 0.1666666666666643
          },
          {
            "name": "D4",
            "midi": 62,
            "time": 49.33333333333331,
            "velocity": 0.5039370078740157,
            "duration": 0.0833333333333357
          },
          {
            "name": "E4",
            "midi": 64,
            "time": 49.49999999999998,
            "velocity": 0.5039370078740157,
            "duration": 0.0833333333333357
          },
          {
            "name": "F4",
            "midi": 65,
            "time": 49.66666666666665,
            "velocity": 0.5039370078740157,
            "duration": 0.3333333333333357
          },
          {
            "name": "G4",
            "midi": 67,
            "time": 50.16666666666665,
            "velocity": 0.5039370078740157,
            "duration": 0.0833333333333357
          },
          {
            "name": "A4",
            "midi": 69,
            "time": 50.33333333333332,
            "velocity": 0.5039370078740157,
            "duration": 0.0833333333333357
          },
          {
            "name": "G4",
            "midi": 67,
            "time": 50.49999999999999,
            "velocity": 0.5039370078740157,
            "duration": 0.1666666666666643
          },
          {
            "name": "F4",
            "midi": 65,
            "time": 50.83333333333332,
            "velocity": 0.5039370078740157,
            "duration": 0.1666666666666643
          },
          {
            "name": "E4",
            "midi": 64,
            "time": 51.16666666666665,
            "velocity": 0.5039370078740157,
            "duration": 0.1666666666666643
          },
          {
            "name": "F4",
            "midi": 65,
            "time": 51.49999999999998,
            "velocity": 0.5039370078740157,
            "duration": 0.1666666666666643
          },
          {
            "name": "G4",
            "midi": 67,
            "time": 51.83333333333331,
            "velocity": 0.5039370078740157,
            "duration": 0.1666666666666643
          },
          {
            "name": "A4",
            "midi": 69,
            "time": 52.166666666666636,
            "velocity": 0.5039370078740157,
            "duration": 0.1666666666666643
          },
          {
            "name": "G4",
            "midi": 67,
            "time": 52.499999999999964,
            "velocity": 0.5039370078740157,
            "duration": 0.1666666666666643
          },
          {
            "name": "F4",
            "midi": 65,
            "time": 53.33333333333329,
            "velocity": 0.5039370078740157,
            "duration": 0.0833333333333357
          },
          {
            "name": "G4",
            "midi": 67,
            "time": 53.499999999999964,
            "velocity": 0.5039370078740157,
            "duration": 0.0833333333333357
          },
          {
            "name": "A4",
            "midi": 69,
            "time": 53.666666666666636,
            "velocity": 0.5039370078740157,
            "duration": 0.1666666666666643
          },
          {
            "name": "G4",
            "midi": 67,
            "time": 54.166666666666636,
            "velocity": 0.5039370078740157,
            "duration": 0.0833333333333357
          },
          {
            "name": "F4",
            "midi": 65,
            "time": 54.33333333333331,
            "velocity": 0.5039370078740157,
            "duration": 0.0833333333333357
          },
          {
            "name": "E4",
            "midi": 64,
            "time": 54.49999999999998,
            "velocity": 0.5039370078740157,
            "duration": 0.1666666666666643
          },
          {
            "name": "F4",
            "midi": 65,
            "time": 54.83333333333331,
            "velocity": 0.5039370078740157,
            "duration": 0.1666666666666643
          },
          {
            "name": "E4",
            "midi": 64,
            "time": 55.166666666666636,
            "velocity": 0.5039370078740157,
            "duration": 0.1666666666666643
          },
          {
            "name": "D4",
            "midi": 62,
            "time": 55.499999999999964,
            "velocity": 0.5039370078740157,
            "duration": 0.3333333333333357
          },
          {
            "name": "E4",
            "midi": 64,
            "time": 55.999999999999964,
            "velocity": 0.5039370078740157,
            "duration": 0.0833333333333357
          },
          {
            "name": "C4",
            "midi": 60,
            "time": 56.166666666666636,
            "velocity": 0.5039370078740157,
            "duration": 0.0833333333333357
          },
          {
            "name": "D4",
            "midi": 62,
            "time": 56.33333333333331,
            "velocity": 0.5039370078740157,
            "duration": 0.3333333333333357
          },
          {
            "name": "D5",
            "midi": 74,
            "time": 56.99999999999998,
            "velocity": 0.5039370078740157,
            "duration": 0.0833333333333357
          },
          {
            "name": "E5",
            "midi": 76,
            "time": 57.16666666666665,
            "velocity": 0.5039370078740157,
            "duration": 0.0833333333333357
          },
          {
            "name": "F5",
            "midi": 77,
            "time": 57.33333333333332,
            "velocity": 0.5039370078740157,
            "duration": 0.3333333333333357
          },
          {
            "name": "E5",
            "midi": 76,
            "time": 57.83333333333332,
            "velocity": 0.5039370078740157,
            "duration": 0.0833333333333357
          },
          {
            "name": "F5",
            "midi": 77,
            "time": 57.99999999999999,
            "velocity": 0.5039370078740157,
            "duration": 0.0833333333333357
          },
          {
            "name": "G5",
            "midi": 79,
            "time": 58.166666666666664,
            "velocity": 0.5039370078740157,
            "duration": 0.1666666666666643
          },
          {
            "name": "F5",
            "midi": 77,
            "time": 58.49999999999999,
            "velocity": 0.5039370078740157,
            "duration": 0.1666666666666643
          },
          {
            "name": "G5",
            "midi": 79,
            "time": 58.83333333333332,
            "velocity": 0.5039370078740157,
            "duration": 0.1666666666666643
          },
          {
            "name": "A5",
            "midi": 81,
            "time": 59.16666666666665,
            "velocity": 0.5039370078740157,
            "duration": 0.1666666666666643
          },
          {
            "name": "G5",
            "midi": 79,
            "time": 59.49999999999998,
            "velocity": 0.5039370078740157,
            "duration": 0.1666666666666643
          },
          {
            "name": "F5",
            "midi": 77,
            "time": 59.83333333333331,
            "velocity": 0.5039370078740157,
            "duration": 0.1666666666666643
          },
          {
            "name": "D5",
            "midi": 74,
            "time": 60.166666666666636,
            "velocity": 0.5039370078740157,
            "duration": 0.3333333333333357
          },
          {
            "name": "D5",
            "midi": 74,
            "time": 60.83333333333331,
            "velocity": 0.5039370078740157,
            "duration": 0.0833333333333357
          },
          {
            "name": "E5",
            "midi": 76,
            "time": 60.99999999999998,
            "velocity": 0.5039370078740157,
            "duration": 0.0833333333333357
          },
          {
            "name": "F5",
            "midi": 77,
            "time": 61.16666666666665,
            "velocity": 0.5039370078740157,
            "duration": 0.1666666666666643
          },
          {
            "name": "G5",
            "midi": 79,
            "time": 61.49999999999998,
            "velocity": 0.5039370078740157,
            "duration": 0.1666666666666643
          },
          {
            "name": "A5",
            "midi": 81,
            "time": 61.83333333333331,
            "velocity": 0.5039370078740157,
            "duration": 0.1666666666666643
          },
          {
            "name": "A#5",
            "midi": 82,
            "time": 62.166666666666636,
            "velocity": 0.5039370078740157,
            "duration": 0.1666666666666643
          },
          {
            "name": "D5",
            "midi": 74,
            "time": 62.499999999999964,
            "velocity": 0.5039370078740157,
            "duration": 0.1666666666666643
          },
          {
            "name": "G5",
            "midi": 79,
            "time": 62.83333333333329,
            "velocity": 0.5039370078740157,
            "duration": 0.1666666666666643
          },
          {
            "name": "F5",
            "midi": 77,
            "time": 63.16666666666662,
            "velocity": 0.5039370078740157,
            "duration": 0.3333333333333357
          },
          {
            "name": "G5",
            "midi": 79,
            "time": 63.83333333333329,
            "velocity": 0.5039370078740157,
            "duration": 0.0833333333333357
          },
          {
            "name": "E5",
            "midi": 76,
            "time": 63.999999999999964,
            "velocity": 0.5039370078740157,
            "duration": 0.0833333333333357
          },
          {
            "name": "D5",
            "midi": 74,
            "time": 64.16666666666663,
            "velocity": 0.5039370078740157,
            "duration": 0.3333333333333286
          },
          {
            "name": "E5",
            "midi": 76,
            "time": 64.66666666666663,
            "velocity": 0.5039370078740157,
            "duration": 0.0833333333333286
          },
          {
            "name": "C#5",
            "midi": 73,
            "time": 64.83333333333329,
            "velocity": 0.5039370078740157,
            "duration": 0.0833333333333286
          },
          {
            "name": "A5",
            "midi": 81,
            "time": 65.16666666666661,
            "velocity": 0.5039370078740157,
            "duration": 0.5
          },
          {
            "name": "A#5",
            "midi": 82,
            "time": 66.16666666666661,
            "velocity": 0.5039370078740157,
            "duration": 0.5
          },
          {
            "name": "A5",
            "midi": 81,
            "time": 67.16666666666661,
            "velocity": 0.5039370078740157,
            "duration": 0.1666666666666714
          },
          {
            "name": "A5",
            "midi": 81,
            "time": 67.49999999999996,
            "velocity": 0.5039370078740157,
            "duration": 0.1666666666666714
          },
          {
            "name": "A5",
            "midi": 81,
            "time": 67.8333333333333,
            "velocity": 0.5039370078740157,
            "duration": 0.1666666666666714
          },
          {
            "name": "A5",
            "midi": 81,
            "time": 68.16666666666664,
            "velocity": 0.5039370078740157,
            "duration": 0.0833333333333286
          },
          {
            "name": "G5",
            "midi": 79,
            "time": 68.3333333333333,
            "velocity": 0.5039370078740157,
            "duration": 0.1666666666666714
          },
          {
            "name": "G5",
            "midi": 79,
            "time": 69.16666666666664,
            "velocity": 0.5039370078740157,
            "duration": 0.6666666666666714
          },
          {
            "name": "F5",
            "midi": 77,
            "time": 70.16666666666664,
            "velocity": 0.5039370078740157,
            "duration": 0.6666666666666714
          },
          {
            "name": "F5",
            "midi": 77,
            "time": 71.16666666666664,
            "velocity": 0.5039370078740157,
            "duration": 0.1666666666666714
          },
          {
            "name": "G5",
            "midi": 79,
            "time": 71.49999999999999,
            "velocity": 0.5039370078740157,
            "duration": 0.1666666666666714
          },
          {
            "name": "E5",
            "midi": 76,
            "time": 71.83333333333333,
            "velocity": 0.5039370078740157,
            "duration": 0.1666666666666714
          },
          {
            "name": "D5",
            "midi": 74,
            "time": 72.16666666666667,
            "velocity": 0.5039370078740157,
            "duration": 0.25
          },
          {
            "name": "D5",
            "midi": 74,
            "time": 72.66666666666667,
            "velocity": 0.5039370078740157,
            "duration": 0.0833333333333286
          },
          {
            "name": "E5",
            "midi": 76,
            "time": 72.83333333333333,
            "velocity": 0.5039370078740157,
            "duration": 0.0833333333333286
          },
          {
            "name": "F5",
            "midi": 77,
            "time": 72.99999999999999,
            "velocity": 0.5039370078740157,
            "duration": 0.0833333333333286
          },
          {
            "name": "A5",
            "midi": 81,
            "time": 73.16666666666664,
            "velocity": 0.5039370078740157,
            "duration": 0.3333333333333286
          },
          {
            "name": "D5",
            "midi": 74,
            "time": 73.66666666666664,
            "velocity": 0.5039370078740157,
            "duration": 0.0833333333333286
          },
          {
            "name": "E5",
            "midi": 76,
            "time": 73.8333333333333,
            "velocity": 0.5039370078740157,
            "duration": 0.0833333333333286
          },
          {
            "name": "F5",
            "midi": 77,
            "time": 73.99999999999996,
            "velocity": 0.5039370078740157,
            "duration": 0.0833333333333286
          },
          {
            "name": "A#5",
            "midi": 82,
            "time": 74.16666666666661,
            "velocity": 0.5039370078740157,
            "duration": 0.3333333333333286
          },
          {
            "name": "D5",
            "midi": 74,
            "time": 74.66666666666661,
            "velocity": 0.5039370078740157,
            "duration": 0.0833333333333286
          },
          {
            "name": "E5",
            "midi": 76,
            "time": 74.83333333333327,
            "velocity": 0.5039370078740157,
            "duration": 0.0833333333333286
          },
          {
            "name": "F5",
            "midi": 77,
            "time": 74.99999999999993,
            "velocity": 0.5039370078740157,
            "duration": 0.0833333333333286
          },
          {
            "name": "A5",
            "midi": 81,
            "time": 75.16666666666659,
            "velocity": 0.5039370078740157,
            "duration": 0.1666666666666714
          },
          {
            "name": "A5",
            "midi": 81,
            "time": 75.49999999999993,
            "velocity": 0.5039370078740157,
            "duration": 0.1666666666666714
          },
          {
            "name": "C6",
            "midi": 84,
            "time": 75.83333333333327,
            "velocity": 0.5039370078740157,
            "duration": 0.1666666666666714
          },
          {
            "name": "A5",
            "midi": 81,
            "time": 76.16666666666661,
            "velocity": 0.5039370078740157,
            "duration": 0.0833333333333286
          },
          {
            "name": "G5",
            "midi": 79,
            "time": 76.33333333333327,
            "velocity": 0.5039370078740157,
            "duration": 0.1666666666666714
          },
          {
            "name": "G5",
            "midi": 79,
            "time": 77.16666666666661,
            "velocity": 0.5039370078740157,
            "duration": 0.6666666666666714
          },
          {
            "name": "F5",
            "midi": 77,
            "time": 78.16666666666661,
            "velocity": 0.5039370078740157,
            "duration": 0.6666666666666714
          },
          {
            "name": "F5",
            "midi": 77,
            "time": 79.16666666666661,
            "velocity": 0.5039370078740157,
            "duration": 0.1666666666666714
          },
          {
            "name": "G5",
            "midi": 79,
            "time": 79.49999999999996,
            "velocity": 0.5039370078740157,
            "duration": 0.1666666666666714
          },
          {
            "name": "E5",
            "midi": 76,
            "time": 79.8333333333333,
            "velocity": 0.5039370078740157,
            "duration": 0.1666666666666714
          },
          {
            "name": "D5",
            "midi": 74,
            "time": 80.16666666666664,
            "velocity": 0.5039370078740157,
            "duration": 0.75
          },
          {
            "name": "D4",
            "midi": 62,
            "time": 81.83333333333331,
            "velocity": 0.5039370078740157,
            "duration": 1
          }
        ],
        "controlChanges": {
          "64": [
            {
              "number": 64,
              "time": 0.11458333333333333,
              "value": 1
            },
            {
              "number": 64,
              "time": 0.6770833333333333,
              "value": 0
            },
            {
              "number": 64,
              "time": 0.8645833333333333,
              "value": 1
            },
            {
              "number": 64,
              "time": 1.4322916666666665,
              "value": 0
            },
            {
              "number": 64,
              "time": 1.739583333333333,
              "value": 1
            },
            {
              "number": 64,
              "time": 2.1562499999999996,
              "value": 0
            },
            {
              "number": 64,
              "time": 2.682291666666667,
              "value": 1
            },
            {
              "number": 64,
              "time": 3.880208333333334,
              "value": 0
            },
            {
              "number": 64,
              "time": 4.046875000000001,
              "value": 1
            },
            {
              "number": 64,
              "time": 4.703125000000001,
              "value": 0
            },
            {
              "number": 64,
              "time": 4.921875,
              "value": 1
            },
            {
              "number": 64,
              "time": 5.421875,
              "value": 0
            },
            {
              "number": 64,
              "time": 5.692708333333334,
              "value": 1
            },
            {
              "number": 64,
              "time": 6.244791666666666,
              "value": 0
            },
            {
              "number": 64,
              "time": 6.666666666666667,
              "value": 1
            },
            {
              "number": 64,
              "time": 7.755208333333334,
              "value": 0
            },
            {
              "number": 64,
              "time": 10.427083333333334,
              "value": 1
            },
            {
              "number": 64,
              "time": 10.953124999999998,
              "value": 0
            },
            {
              "number": 64,
              "time": 14.411458333333334,
              "value": 1
            },
            {
              "number": 64,
              "time": 14.953125,
              "value": 0
            },
            {
              "number": 64,
              "time": 15.213541666666668,
              "value": 1
            },
            {
              "number": 64,
              "time": 15.468750000000002,
              "value": 0
            },
            {
              "number": 64,
              "time": 15.614583333333336,
              "value": 1
            },
            {
              "number": 64,
              "time": 15.82291666666667,
              "value": 0
            }
          ]
        },
        "id": 0,
        "name": "Standard.MID",
        "channelNumber": 0,
        "isPercussion": false
      }
    ]
  }


console.log("here");
  // piono
var synth = new Tone.PolySynth(4, Tone.Synth, {
    "harmonicity": 3.01,
    "modulationIndex": 14,
    "oscillator": {
        "type": "triangle"
    },
    "envelope": {
        "attack": 0.2,
        "decay": 0.3,
        "sustain": 0.1,
        "release": 1.2
    },
    "modulation" : {
        "type": "square"
    },
    "modulationEnvelope" : {
        "attack": 0.01,
        "decay": 0.5,
        "sustain": 0.2,
        "release": 0.1
    }
	// "portamento" : 0.005
}).toMaster();

console.log(piratesMID.tracks.notes);
var part = new Tone.Part(function(time, value){
    // console.log(value);
    // console.log(piratesMID.tracks[0].notes);
    //the value is an object which contains both the note and the duration
    synth.triggerAttackRelease(value.name, value.duration, time);
}, piratesMID.tracks[0].notes).start('0:0');

play = function() {
    Tone.Transport.start();
}

stop = function() {
	Tone.Transport.stop();
}

guitar = function() {
  synth.set({
    "oscillator": {
        "type": "fmsquare5",
		"modulationType" : "triangle",
      	"modulationIndex" : 2,
      	"harmonicity" : 0.501
    },
    "filter": {
        "Q": 1,
        "type": "lowpass",
        "rolloff": -24
    },
    "envelope": {
        "attack": 0.01,
        "decay": 0.1,
        "sustain": 0.4,
        "release": 2
    },
    "filterEnvelope": {
        "attack": 0.01,
        "decay": 0.1,
        "sustain": 0.8,
        "release": 1.5,
        "baseFrequency": 50,
        "octaves": 4.4
    }
})
}
brass = function() {
  synth.set({
  "harmonicity": 3.01,
  "modulationIndex": 14,
  "oscillator": {
      "type": "triangle"
  },
  "envelope": {
      "attack": 0.2,
      "decay": 0.3,
      "sustain": 0.1,
      "release": 1.2
  },
  "modulation" : {
      "type": "square"
  },
  "modulationEnvelope" : {
      "attack": 0.01,
      "decay": 0.5,
      "sustain": 0.2,
      "release": 0.1
  }
})
}